<?xml version="1.0" encoding="UTF-8" standalone="no"?>
<svg
   xmlns:dc="http://purl.org/dc/elements/1.1/"
   xmlns:cc="http://creativecommons.org/ns#"
   xmlns:rdf="http://www.w3.org/1999/02/22-rdf-syntax-ns#"
   xmlns:svg="http://www.w3.org/2000/svg"
   xmlns="http://www.w3.org/2000/svg"
   xmlns:sodipodi="http://sodipodi.sourceforge.net/DTD/sodipodi-0.dtd"
   xmlns:inkscape="http://www.inkscape.org/namespaces/inkscape"
   width="48"
   height="48"
   viewBox="0 0 12.7 12.7"
   version="1.1"
   id="svg122740"
   inkscape:version="1.0.1 (3bc2e813f5, 2020-09-07)"
   sodipodi:docname="Logo_FMO_Imagen_Texto_Celeste_48x48.svg"
   inkscape:export-filename="/home/gabriel/solinf/proyectos/MonkeyTracker/traccar/traccar-web/web/Logo_FMO_Imagen_Texto_Celeste_48x48.png"
   inkscape:export-xdpi="96"
   inkscape:export-ydpi="96">
  <defs
     id="defs122734">
    <rect
       x="406.37167"
       y="426.03461"
       width="4.3281093"
       height="19.629332"
       id="rect76031" />
    <clipPath
       clipPathUnits="userSpaceOnUse"
       id="clipPath122417">
      <path
         d="m 4056.89,4216.74 c -2.24,0 -4.4,-0.34 -6.48,-0.86 -47.77,105.33 -149.69,177.14 -264.87,186.96 -2.13,13.06 -13.39,23.05 -27.06,23.05 -13.66,0 -24.91,-9.98 -27.04,-23.03 -115.58,-9.79 -217.13,-81.66 -264.86,-187.24 -2.35,0.65 -4.79,1.12 -7.36,1.12 -15.18,0 -27.49,-12.31 -27.49,-27.5 0,-15.18 12.31,-27.49 27.49,-27.49 15.19,0 27.51,12.31 27.51,27.49 0,8.56 -4,16.11 -10.13,21.15 33.85,75.28 96.08,132.75 171.17,161.63 l -0.08,-80.07 -52.34,-52.32 c -8.76,6.11 -20.89,5.3 -28.7,-2.52 -8.8,-8.79 -8.79,-23.02 0,-31.81 8.78,-8.77 23.01,-8.79 31.81,0 7.82,7.82 8.62,19.95 2.51,28.72 l 53.48,53.48 c 0.74,0.75 1.16,1.75 1.16,2.8 l 0.09,84.63 c 24.35,8.6 49.9,14.33 76.25,16.6 2.75,-10.59 11.58,-18.62 22.57,-20.23 v -163.84 c 0,-2.18 1.78,-3.97 3.97,-3.97 2.18,0 3.96,1.79 3.96,3.97 v 163.85 c 10.99,1.6 19.82,9.63 22.56,20.21 111.05,-9.62 209.23,-78.95 255.2,-180.57 -6.53,-5.02 -10.81,-12.83 -10.81,-21.71 0,-15.18 12.32,-27.49 27.49,-27.49 15.19,0 27.51,12.31 27.51,27.49 0,15.19 -12.32,27.5 -27.51,27.5 z"
         id="path122415" />
    </clipPath>
    <linearGradient
       x1="0"
       y1="0"
       x2="1"
       y2="0"
       gradientUnits="userSpaceOnUse"
       gradientTransform="matrix(992.589,0,0,-992.589,3285.49,4293.82)"
       spreadMethod="pad"
       id="linearGradient122425">
      <stop
         style="stop-opacity:1;stop-color:#7ad3dd"
         offset="0"
         id="stop122419" />
      <stop
         style="stop-opacity:1;stop-color:#5ba4de"
         offset="0.505381"
         id="stop122421" />
      <stop
         style="stop-opacity:1;stop-color:#4460b5"
         offset="1"
         id="stop122423" />
    </linearGradient>
    <clipPath
       clipPathUnits="userSpaceOnUse"
       id="clipPath122435">
      <path
         d="m 4056.89,4009.57 c -15.17,0 -27.49,-12.3 -27.49,-27.49 0,-9.46 4.79,-17.79 12.06,-22.74 -24.48,-55.78 -64.38,-101.89 -113.59,-134.1 l -52.17,52.27 v 74 c 10.53,1.87 18.54,11.01 18.54,22.07 0,12.44 -10.07,22.5 -22.5,22.5 -12.41,0 -22.49,-10.06 -22.49,-22.5 0,-11.05 8.02,-20.2 18.52,-22.07 v -75.64 c 0,-1.05 0.42,-2.06 1.17,-2.81 l 51.98,-52.1 c -46.62,-28.79 -101.01,-45.46 -158.47,-46.19 v 130.6 c 13.29,1.93 23.54,13.27 23.54,27.09 0,15.18 -12.33,27.49 -27.51,27.49 -15.18,0 -27.49,-12.31 -27.49,-27.49 0,-13.83 10.24,-25.17 23.53,-27.1 v -130.59 c -122.22,1.55 -230.94,74.49 -279.21,185.1 6.89,5 11.42,13.05 11.42,22.21 0,15.19 -12.32,27.49 -27.51,27.49 -15.18,0 -27.49,-12.3 -27.49,-27.49 0,-15.19 12.31,-27.5 27.49,-27.5 1.99,0 3.91,0.24 5.78,0.64 50.62,-115.85 165.16,-191.91 293.49,-191.9 128.25,0 242.8,76 293.45,191.77 1.61,-0.3 3.26,-0.51 4.95,-0.51 15.19,0 27.51,12.31 27.51,27.5 0,15.19 -12.32,27.49 -27.51,27.49 z"
         id="path122433" />
    </clipPath>
    <linearGradient
       x1="0"
       y1="0"
       x2="1"
       y2="0"
       gradientUnits="userSpaceOnUse"
       gradientTransform="matrix(992.589,0,0,-992.589,3285.49,3886.45)"
       spreadMethod="pad"
       id="linearGradient122443">
      <stop
         style="stop-opacity:1;stop-color:#7ad3dd"
         offset="0"
         id="stop122437" />
      <stop
         style="stop-opacity:1;stop-color:#5ba4de"
         offset="0.505381"
         id="stop122439" />
      <stop
         style="stop-opacity:1;stop-color:#4460b5"
         offset="1"
         id="stop122441" />
    </linearGradient>
    <clipPath
       clipPathUnits="userSpaceOnUse"
       id="clipPath122417-3">
      <path
         d="m 4056.89,4216.74 c -2.24,0 -4.4,-0.34 -6.48,-0.86 -47.77,105.33 -149.69,177.14 -264.87,186.96 -2.13,13.06 -13.39,23.05 -27.06,23.05 -13.66,0 -24.91,-9.98 -27.04,-23.03 -115.58,-9.79 -217.13,-81.66 -264.86,-187.24 -2.35,0.65 -4.79,1.12 -7.36,1.12 -15.18,0 -27.49,-12.31 -27.49,-27.5 0,-15.18 12.31,-27.49 27.49,-27.49 15.19,0 27.51,12.31 27.51,27.49 0,8.56 -4,16.11 -10.13,21.15 33.85,75.28 96.08,132.75 171.17,161.63 l -0.08,-80.07 -52.34,-52.32 c -8.76,6.11 -20.89,5.3 -28.7,-2.52 -8.8,-8.79 -8.79,-23.02 0,-31.81 8.78,-8.77 23.01,-8.79 31.81,0 7.82,7.82 8.62,19.95 2.51,28.72 l 53.48,53.48 c 0.74,0.75 1.16,1.75 1.16,2.8 l 0.09,84.63 c 24.35,8.6 49.9,14.33 76.25,16.6 2.75,-10.59 11.58,-18.62 22.57,-20.23 v -163.84 c 0,-2.18 1.78,-3.97 3.97,-3.97 2.18,0 3.96,1.79 3.96,3.97 v 163.85 c 10.99,1.6 19.82,9.63 22.56,20.21 111.05,-9.62 209.23,-78.95 255.2,-180.57 -6.53,-5.02 -10.81,-12.83 -10.81,-21.71 0,-15.18 12.32,-27.49 27.49,-27.49 15.19,0 27.51,12.31 27.51,27.49 0,15.19 -12.32,27.5 -27.51,27.5 z"
         id="path122415-6" />
    </clipPath>
    <linearGradient
       x1="0"
       y1="0"
       x2="1"
       y2="0"
       gradientUnits="userSpaceOnUse"
       gradientTransform="matrix(992.589,0,0,-992.589,3285.49,4293.82)"
       spreadMethod="pad"
       id="linearGradient122425-7">
      <stop
         style="stop-opacity:1;stop-color:#7ad3dd"
         offset="0"
         id="stop122419-5" />
      <stop
         style="stop-opacity:1;stop-color:#5ba4de"
         offset="0.505381"
         id="stop122421-3" />
      <stop
         style="stop-opacity:1;stop-color:#4460b5"
         offset="1"
         id="stop122423-5" />
    </linearGradient>
    <clipPath
       clipPathUnits="userSpaceOnUse"
       id="clipPath122435-6">
      <path
         d="m 4056.89,4009.57 c -15.17,0 -27.49,-12.3 -27.49,-27.49 0,-9.46 4.79,-17.79 12.06,-22.74 -24.48,-55.78 -64.38,-101.89 -113.59,-134.1 l -52.17,52.27 v 74 c 10.53,1.87 18.54,11.01 18.54,22.07 0,12.44 -10.07,22.5 -22.5,22.5 -12.41,0 -22.49,-10.06 -22.49,-22.5 0,-11.05 8.02,-20.2 18.52,-22.07 v -75.64 c 0,-1.05 0.42,-2.06 1.17,-2.81 l 51.98,-52.1 c -46.62,-28.79 -101.01,-45.46 -158.47,-46.19 v 130.6 c 13.29,1.93 23.54,13.27 23.54,27.09 0,15.18 -12.33,27.49 -27.51,27.49 -15.18,0 -27.49,-12.31 -27.49,-27.49 0,-13.83 10.24,-25.17 23.53,-27.1 v -130.59 c -122.22,1.55 -230.94,74.49 -279.21,185.1 6.89,5 11.42,13.05 11.42,22.21 0,15.19 -12.32,27.49 -27.51,27.49 -15.18,0 -27.49,-12.3 -27.49,-27.49 0,-15.19 12.31,-27.5 27.49,-27.5 1.99,0 3.91,0.24 5.78,0.64 50.62,-115.85 165.16,-191.91 293.49,-191.9 128.25,0 242.8,76 293.45,191.77 1.61,-0.3 3.26,-0.51 4.95,-0.51 15.19,0 27.51,12.31 27.51,27.5 0,15.19 -12.32,27.49 -27.51,27.49 z"
         id="path122433-2" />
    </clipPath>
    <linearGradient
       x1="0"
       y1="0"
       x2="1"
       y2="0"
       gradientUnits="userSpaceOnUse"
       gradientTransform="matrix(992.589,0,0,-992.589,3285.49,3886.45)"
       spreadMethod="pad"
       id="linearGradient122443-9">
      <stop
         style="stop-opacity:1;stop-color:#7ad3dd"
         offset="0"
         id="stop122437-1" />
      <stop
         style="stop-opacity:1;stop-color:#5ba4de"
         offset="0.505381"
         id="stop122439-2" />
      <stop
         style="stop-opacity:1;stop-color:#4460b5"
         offset="1"
         id="stop122441-7" />
    </linearGradient>
    <rect
       x="406.37167"
       y="426.03461"
       width="4.3281093"
       height="19.629332"
       id="rect76063" />
  </defs>
  <sodipodi:namedview
     id="base"
     pagecolor="#ffffff"
     bordercolor="#666666"
     borderopacity="1.0"
     inkscape:pageopacity="0.0"
     inkscape:pageshadow="2"
     inkscape:zoom="5.5999999"
     inkscape:cx="48.532883"
     inkscape:cy="46.669547"
     inkscape:document-units="mm"
     inkscape:current-layer="layer2"
     inkscape:document-rotation="0"
     showgrid="false"
     borderlayer="true"
     inkscape:window-width="1366"
     inkscape:window-height="705"
     inkscape:window-x="1366"
     inkscape:window-y="30"
     inkscape:window-maximized="1"
     units="px" />
  <metadata
     id="metadata122737">
    <rdf:RDF>
      <cc:Work
         rdf:about="">
        <dc:format>image/svg+xml</dc:format>
        <dc:type
           rdf:resource="http://purl.org/dc/dcmitype/StillImage" />
        <dc:title />
      </cc:Work>
    </rdf:RDF>
  </metadata>
  <g
     inkscape:label="Fondo"
     inkscape:groupmode="layer"
     id="layer1"
     style="display:inline" />
  <g
     inkscape:groupmode="layer"
     id="layer3"
     inkscape:label="Degradados"
     style="display:none" />
  <g
     inkscape:groupmode="layer"
     id="layer7"
     inkscape:label="Textos"
     style="display:inline" />
  <g
     inkscape:groupmode="layer"
     id="layer2"
     inkscape:label="Logos"
     style="display:inline">
    <g
       id="g901"
       transform="matrix(0.07120644,0,0,0.06944446,-1.1605854,-0.29492053)">
      <g
         id="g122395"
         transform="matrix(1.867034,0,0,-1.6942426,-593.40213,743.92856)"
         style="display:inline;fill:#4e7ec7;fill-opacity:1">
        <text
           transform="scale(1,-1)"
           style="font-variant:normal;font-weight:bold;font-size:15.972px;font-family:Orbitron;-inkscape-font-specification:Orbitron-Bold;writing-mode:lr-tb;fill:#4e7ec7;fill-opacity:1;fill-rule:nonzero;stroke:none"
           id="text122399"
           x="327.93893"
           y="-349.0907"><tspan
             sodipodi:role="line"
             id="tspan122397"
             x="327.93893"
             y="-349.0907">GrupoFMO</tspan></text>
      </g>
      <g
         id="g70"
         transform="matrix(1.867034,0,0,-1.6942426,-593.9313,771.97458)"
         style="display:inline;fill:#4e7ec7;fill-opacity:1"
         inkscape:export-xdpi="96"
         inkscape:export-ydpi="96">
        <text
           transform="scale(1,-1)"
           style="font-variant:normal;font-weight:bold;font-size:12.6945px;font-family:Orbitron;-inkscape-font-specification:Orbitron-Bold;writing-mode:lr-tb;fill:#4e7ec7;fill-opacity:1;fill-rule:nonzero;stroke:none"
           id="text68"
           x="338.62997"
           y="-349.0907"><tspan
             sodipodi:role="line"
             id="tspan66"
             x="338.62997"
             y="-349.0907"
             style="font-style:normal;font-variant:normal;font-weight:bold;font-stretch:normal;font-size:12.6945px;font-family:Orbitron;-inkscape-font-specification:'Orbitron Bold';fill:#4e7ec7;fill-opacity:1">Tech - IoT</tspan></text>
      </g>
      <path
         d="m 154.50814,61.974275 c -1.69061,0 -3.0865,1.285558 -3.37517,2.974462 h -25.40081 l -0.0164,-19.082599 c 0,-0.167167 -0.0641,-0.32933 -0.17716,-0.450038 l -8.16909,-8.593972 c 0.93309,-1.409323 0.81244,-3.356913 -0.38184,-4.615181 -1.34398,-1.412507 -3.5172,-1.409268 -4.85814,0 -1.34089,1.412508 -1.3424,3.70083 0,5.113323 1.19431,1.255044 3.04531,1.385176 4.3847,0.403132 l 7.99043,8.40757 0.0164,18.817445 h -6.44335 c -0.16028,0 -0.31302,0.06743 -0.42773,0.18814 l -9.09922,9.554949 H 93.49843 c -0.28574,-1.69213 -1.6815,-2.97771 -3.3706,-2.97771 -1.89985,0 -3.436294,1.6166 -3.436294,3.61407 0,1.99584 1.536444,3.61402 3.436294,3.61402 1.6891,0 3.08499,-1.28558 3.3706,-2.97606 h 15.3028 c 0.16029,0 0.31301,-0.0674 0.42776,-0.1863 l 9.1007,-9.55658 h 32.80328 c 0.28875,1.692154 1.68451,2.977711 3.37518,2.977711 1.89833,0 3.43319,-1.616625 3.43319,-3.614073 0,-1.997406 -1.53486,-3.612388 -3.43319,-3.612388"
         style="fill:#8ed9e1;fill-opacity:1;fill-rule:nonzero;stroke:none;stroke-width:0.156658"
         id="path122407" />
      <path
         d="m 109.14799,52.570351 c -1.6876,0 -3.08346,1.287203 -3.37057,2.977711 H 90.47614 c -0.16191,0 -0.313,0.06743 -0.42901,0.186296 l -9.100754,9.554977 h -32.80484 c -0.28701,-1.692153 -1.683,-2.9777 -3.37366,-2.9777 -1.89681,0 -3.43165,1.61663 -3.43165,3.61564 0,1.995842 1.53484,3.612454 3.43165,3.612454 1.69066,0 3.08656,-1.285582 3.37366,-2.977685 h 23.307 l 0.0127,19.648192 c 0,0.16721 0.0628,0.32935 0.17714,0.44822 l 8.16762,8.595611 c -0.93315,1.40775 -0.81247,3.35534 0.38184,4.61521 1.34395,1.412513 3.51716,1.407673 4.85807,0 1.34244,-1.41251 1.34398,-3.70085 0,-5.11335 -1.19274,-1.253391 -3.04222,-1.383571 -4.38312,-0.40175 l -7.99201,-8.409181 -0.0127,-19.383084 h 8.53873 c 0.16028,0 0.313,-0.0661 0.42771,-0.184954 l 9.100794,-9.554925 h 15.05078 c 0.28703,1.690508 1.68301,2.976055 3.3706,2.976055 1.89989,0 3.43474,-1.616562 3.43474,-3.614034 0,-1.995852 -1.53485,-3.61402 -3.43474,-3.61402"
         style="fill:#8ed9e1;fill-opacity:1;fill-rule:nonzero;stroke:none;stroke-width:0.156658"
         id="path122409" />
      <g
         id="g122411"
         transform="matrix(0.15272266,0,0,-0.16069544,-473.47053,722.57558)">
        <g
           id="g122413"
           clip-path="url(#clipPath122417-3)">
          <path
             d="m 4056.89,4216.74 c -2.24,0 -4.4,-0.34 -6.48,-0.86 -47.77,105.33 -149.69,177.14 -264.87,186.96 -2.13,13.06 -13.39,23.05 -27.06,23.05 -13.66,0 -24.91,-9.98 -27.04,-23.03 -115.58,-9.79 -217.13,-81.66 -264.86,-187.24 -2.35,0.65 -4.79,1.12 -7.36,1.12 -15.18,0 -27.49,-12.31 -27.49,-27.5 0,-15.18 12.31,-27.49 27.49,-27.49 15.19,0 27.51,12.31 27.51,27.49 0,8.56 -4,16.11 -10.13,21.15 33.85,75.28 96.08,132.75 171.17,161.63 l -0.08,-80.07 -52.34,-52.32 c -8.76,6.11 -20.89,5.3 -28.7,-2.52 -8.8,-8.79 -8.79,-23.02 0,-31.81 8.78,-8.77 23.01,-8.79 31.81,0 7.82,7.82 8.62,19.95 2.51,28.72 l 53.48,53.48 c 0.74,0.75 1.16,1.75 1.16,2.8 l 0.09,84.63 c 24.35,8.6 49.9,14.33 76.25,16.6 2.75,-10.59 11.58,-18.62 22.57,-20.23 v -163.84 c 0,-2.18 1.78,-3.97 3.97,-3.97 2.18,0 3.96,1.79 3.96,3.97 v 163.85 c 10.99,1.6 19.82,9.63 22.56,20.21 111.05,-9.62 209.23,-78.95 255.2,-180.57 -6.53,-5.02 -10.81,-12.83 -10.81,-21.71 0,-15.18 12.32,-27.49 27.49,-27.49 15.19,0 27.51,12.31 27.51,27.49 0,15.19 -12.32,27.5 -27.51,27.5"
             style="fill:url(#linearGradient122425-7);fill-opacity:1;fill-rule:nonzero;stroke:none"
             id="path122427" />
        </g>
      </g>
      <g
         id="g122429"
         transform="matrix(0.15272266,0,0,-0.16069544,-473.47053,722.57558)">
        <g
           id="g122431"
           clip-path="url(#clipPath122435-6)">
          <path
             d="m 4056.89,4009.57 c -15.17,0 -27.49,-12.3 -27.49,-27.49 0,-9.46 4.79,-17.79 12.06,-22.74 -24.48,-55.78 -64.38,-101.89 -113.59,-134.1 l -52.17,52.27 v 74 c 10.53,1.87 18.54,11.01 18.54,22.07 0,12.44 -10.07,22.5 -22.5,22.5 -12.41,0 -22.49,-10.06 -22.49,-22.5 0,-11.05 8.02,-20.2 18.52,-22.07 v -75.64 c 0,-1.05 0.42,-2.06 1.17,-2.81 l 51.98,-52.1 c -46.62,-28.79 -101.01,-45.46 -158.47,-46.19 v 130.6 c 13.29,1.93 23.54,13.27 23.54,27.09 0,15.18 -12.33,27.49 -27.51,27.49 -15.18,0 -27.49,-12.31 -27.49,-27.49 0,-13.83 10.24,-25.17 23.53,-27.1 v -130.59 c -122.22,1.55 -230.94,74.49 -279.21,185.1 6.89,5 11.42,13.05 11.42,22.21 0,15.19 -12.32,27.49 -27.51,27.49 -15.18,0 -27.49,-12.3 -27.49,-27.49 0,-15.19 12.31,-27.5 27.49,-27.5 1.99,0 3.91,0.24 5.78,0.64 50.62,-115.85 165.16,-191.91 293.49,-191.9 128.25,0 242.8,76 293.45,191.77 1.61,-0.3 3.26,-0.51 4.95,-0.51 15.19,0 27.51,12.31 27.51,27.5 0,15.19 -12.32,27.49 -27.51,27.49"
             style="fill:url(#linearGradient122443-9);fill-opacity:1;fill-rule:nonzero;stroke:none"
             id="path122445" />
        </g>
      </g>
    </g>
  </g>
</svg>
